<?xml version="1.0" standalone="no"?>
<!DOCTYPE svg PUBLIC "-//W3C//DTD SVG 20010904//EN"
 "http://www.w3.org/TR/2001/REC-SVG-20010904/DTD/svg10.dtd">
<svg version="1.0" xmlns="http://www.w3.org/2000/svg"
 width="512.000000pt" height="512.000000pt" viewBox="0 0 512.000000 512.000000"
 preserveAspectRatio="xMidYMid meet">
<metadata>
Created by potrace 1.11, written by Peter Selinger 2001-2013
</metadata>
<g transform="translate(0.000000,512.000000) scale(0.100000,-0.100000)"
fill="#000000" stroke="none">
<path d="M3121 4623 c-45 -47 -112 -163 -146 -255 -13 -35 -24 -48 -44 -53
-59 -15 -139 -63 -196 -120 -102 -101 -134 -195 -133 -389 1 -119 0 -123 -33
-189 -55 -112 -146 -191 -314 -273 -232 -114 -329 -178 -421 -275 -164 -175
-282 -462 -328 -794 -18 -129 -12 -408 9 -485 2 -8 7 -31 10 -50 9 -55 35
-149 61 -226 29 -82 27 -92 -37 -185 -78 -115 -94 -161 -96 -276 -1 -111 17
-193 64 -288 75 -154 279 -266 555 -305 79 -12 288 -15 353 -5 236 34 371 81
446 156 41 41 53 85 22 75 -147 -42 -615 -55 -782 -22 -290 59 -436 178 -433
353 2 71 21 121 51 131 35 11 159 6 361 -13 186 -18 473 -24 596 -11 95 9 205
40 221 62 47 65 -27 149 -135 156 -24 1 -45 5 -47 9 -5 7 62 179 74 192 5 4
18 -20 30 -55 80 -231 170 -324 324 -335 52 -4 78 -1 107 12 44 20 50 30 60
100 4 28 13 64 20 81 27 63 -3 100 -90 111 -19 2 -40 6 -46 8 -10 3 -24 69
-44 215 -9 70 -6 496 4 570 4 25 11 80 16 122 13 106 40 154 164 293 49 55
102 159 116 230 11 54 15 269 6 340 -2 17 -7 60 -11 97 -5 58 -40 202 -59 248
-5 11 8 22 45 39 108 52 215 190 226 296 8 64 -3 93 -42 117 -19 11 -35 25
-35 30 0 13 -59 86 -104 129 -49 48 -152 94 -221 98 -6 1 -10 49 -10 123 0
140 -5 180 -29 226 -23 45 -51 42 -105 -15z"/>
</g>
</svg>
